<svg height="810" id="vis" viewBox="-5 -5 810 810" width="810" xmlns="http://www.w3.org/2000/svg">
<rect fill="white" height="810" width="810" x="-5" y="-5"/>
<path d="M691,335 L367,484" stroke="lightgray" stroke-width="1"/>
<path d="M537,313 L309,522" stroke="lightgray" stroke-width="1"/>
<path d="M587,582 L591,199" stroke="lightgray" stroke-width="1"/>
<path d="M582,295 L561,504" stroke="lightgray" stroke-width="1"/>
<path d="M429,579 L479,108" stroke="lightgray" stroke-width="1"/>
<path d="M433,368 L370,601" stroke="lightgray" stroke-width="1"/>
<path d="M366,589 L366,65" stroke="lightgray" stroke-width="1"/>
<path d="M251,560 L553,496" stroke="lightgray" stroke-width="1"/>
<path d="M545,300 L511,166" stroke="lightgray" stroke-width="1"/>
<path d="M718,346 L375,65" stroke="lightgray" stroke-width="1"/>
<path d="M414,393 L249,606" stroke="lightgray" stroke-width="1"/>
<path d="M745,369 L424,115" stroke="lightgray" stroke-width="1"/>
<path d="M537,359 L412,479" stroke="lightgray" stroke-width="1"/>
<path d="M739,370 L515,133" stroke="lightgray" stroke-width="1"/>
<path d="M735,408 L605,452" stroke="lightgray" stroke-width="1"/>
<path d="M603,555 L376,603" stroke="lightgray" stroke-width="1"/>
<path d="M518,480 L658,360" stroke="lightgray" stroke-width="1"/>
<path d="M537,371 L579,219" stroke="lightgray" stroke-width="1"/>
<path d="M637,475 L196,567" stroke="lightgray" stroke-width="1"/>
<path d="M726,449 L645,474" stroke="lightgray" stroke-width="1"/>
<path d="M593,486 L380,145" stroke="lightgray" stroke-width="1"/>
<path d="M505,337 L624,309" stroke="lightgray" stroke-width="1"/>
<path d="M719,390 L649,521" stroke="lightgray" stroke-width="1"/>
<path d="M420,364 L538,499" stroke="lightgray" stroke-width="1"/>
<path d="M438,327 L613,535" stroke="lightgray" stroke-width="1"/>
<path d="M671,522 L343,543" stroke="lightgray" stroke-width="1"/>
<path d="M617,461 L231,622" stroke="lightgray" stroke-width="1"/>
<path d="M632,445 L570,297" stroke="lightgray" stroke-width="1"/>
<path d="M507,274 L461,120" stroke="lightgray" stroke-width="1"/>
<path d="M526,311 L481,513" stroke="lightgray" stroke-width="1"/>
<path d="M679,327 L611,391" stroke="lightgray" stroke-width="1"/>
<path d="M529,322 L624,383" stroke="lightgray" stroke-width="1"/>
<path d="M427,376 L251,633" stroke="lightgray" stroke-width="1"/>
<path d="M589,485 L587,299" stroke="lightgray" stroke-width="1"/>
<path d="M502,328 L373,66" stroke="lightgray" stroke-width="1"/>
<path d="M717,317 L624,505" stroke="lightgray" stroke-width="1"/>
<path d="M445,576 L366,505" stroke="lightgray" stroke-width="1"/>
<path d="M649,451 L604,343" stroke="lightgray" stroke-width="1"/>
<path d="M189,544 L451,512" stroke="lightgray" stroke-width="1"/>
<path d="M374,588 L422,123" stroke="lightgray" stroke-width="1"/>
<path d="M535,359 L545,152" stroke="lightgray" stroke-width="1"/>
<path d="M211,540 L372,579" stroke="lightgray" stroke-width="1"/>
<path d="M629,393 L351,558" stroke="lightgray" stroke-width="1"/>
<path d="M562,620 L368,69" stroke="lightgray" stroke-width="1"/>
<path d="M395,568 L616,546" stroke="lightgray" stroke-width="1"/>
<path d="M329,576 L355,494" stroke="lightgray" stroke-width="1"/>
<path d="M653,526 L573,184" stroke="lightgray" stroke-width="1"/>
<path d="M388,556 L273,575" stroke="lightgray" stroke-width="1"/>
<path d="M664,465 L261,628" stroke="lightgray" stroke-width="1"/>
<path d="M475,290 L327,471" stroke="lightgray" stroke-width="1"/>
<path d="M400,400 L414,393" stroke="brown" stroke-width="3"/>
<path d="M414,393 L427,376" stroke="brown" stroke-width="3"/>
<path d="M427,376 L433,368" stroke="brown" stroke-width="3"/>
<path d="M433,368 L420,364" stroke="brown" stroke-width="3"/>
<path d="M420,364 L438,327" stroke="brown" stroke-width="3"/>
<path d="M438,327 L475,290" stroke="brown" stroke-width="3"/>
<path d="M475,290 L507,274" stroke="brown" stroke-width="3"/>
<path d="M507,274 L545,300" stroke="brown" stroke-width="3"/>
<path d="M545,300 L537,313" stroke="brown" stroke-width="3"/>
<path d="M537,313 L526,311" stroke="brown" stroke-width="3"/>
<path d="M526,311 L529,322" stroke="brown" stroke-width="3"/>
<path d="M529,322 L502,328" stroke="brown" stroke-width="3"/>
<path d="M502,328 L505,337" stroke="brown" stroke-width="3"/>
<path d="M505,337 L535,359" stroke="brown" stroke-width="3"/>
<path d="M535,359 L537,359" stroke="brown" stroke-width="3"/>
<path d="M537,359 L537,371" stroke="brown" stroke-width="3"/>
<path d="M537,371 L518,480" stroke="brown" stroke-width="3"/>
<path d="M518,480 L589,485" stroke="brown" stroke-width="3"/>
<path d="M589,485 L593,486" stroke="brown" stroke-width="3"/>
<path d="M593,486 L617,461" stroke="brown" stroke-width="3"/>
<path d="M617,461 L632,445" stroke="brown" stroke-width="3"/>
<path d="M632,445 L649,451" stroke="brown" stroke-width="3"/>
<path d="M649,451 L664,465" stroke="brown" stroke-width="3"/>
<path d="M664,465 L735,408" stroke="brown" stroke-width="3"/>
<path d="M735,408 L719,390" stroke="brown" stroke-width="3"/>
<path d="M719,390 L739,370" stroke="brown" stroke-width="3"/>
<path d="M739,370 L745,369" stroke="brown" stroke-width="3"/>
<path d="M745,369 L718,346" stroke="brown" stroke-width="3"/>
<path d="M718,346 L717,317" stroke="brown" stroke-width="3"/>
<path d="M717,317 L691,335" stroke="brown" stroke-width="3"/>
<path d="M691,335 L679,327" stroke="brown" stroke-width="3"/>
<path d="M679,327 L582,295" stroke="brown" stroke-width="3"/>
<path d="M582,295 L570,297" stroke="brown" stroke-width="3"/>
<path d="M570,297 L629,393" stroke="brown" stroke-width="3"/>
<path d="M629,393 L624,383" stroke="brown" stroke-width="3"/>
<path d="M624,383 L726,449" stroke="brown" stroke-width="3"/>
<path d="M726,449 L637,475" stroke="brown" stroke-width="3"/>
<path d="M637,475 L645,474" stroke="brown" stroke-width="3"/>
<path d="M645,474 L653,526" stroke="brown" stroke-width="3"/>
<path d="M653,526 L649,521" stroke="brown" stroke-width="3"/>
<path d="M649,521 L671,522" stroke="brown" stroke-width="3"/>
<path d="M671,522 L603,555" stroke="brown" stroke-width="3"/>
<path d="M603,555 L587,582" stroke="brown" stroke-width="3"/>
<path d="M587,582 L562,620" stroke="brown" stroke-width="3"/>
<path d="M562,620 L429,579" stroke="brown" stroke-width="3"/>
<path d="M429,579 L445,576" stroke="brown" stroke-width="3"/>
<path d="M445,576 L395,568" stroke="brown" stroke-width="3"/>
<path d="M395,568 L388,556" stroke="brown" stroke-width="3"/>
<path d="M388,556 L374,588" stroke="brown" stroke-width="3"/>
<path d="M374,588 L366,589" stroke="brown" stroke-width="3"/>
<path d="M366,589 L329,576" stroke="brown" stroke-width="3"/>
<path d="M329,576 L251,560" stroke="brown" stroke-width="3"/>
<path d="M251,560 L211,540" stroke="brown" stroke-width="3"/>
<path d="M211,540 L189,544" stroke="brown" stroke-width="3"/>
<path d="M189,544 L196,567" stroke="brown" stroke-width="3"/>
<path d="M196,567 L273,575" stroke="brown" stroke-width="3"/>
<path d="M273,575 L249,606" stroke="brown" stroke-width="3"/>
<path d="M249,606 L251,633" stroke="brown" stroke-width="3"/>
<path d="M251,633 L261,628" stroke="brown" stroke-width="3"/>
<path d="M261,628 L231,622" stroke="brown" stroke-width="3"/>
<path d="M231,622 L370,601" stroke="brown" stroke-width="3"/>
<path d="M370,601 L376,603" stroke="brown" stroke-width="3"/>
<path d="M376,603 L372,579" stroke="brown" stroke-width="3"/>
<path d="M372,579 L351,558" stroke="brown" stroke-width="3"/>
<path d="M351,558 L343,543" stroke="brown" stroke-width="3"/>
<path d="M343,543 L309,522" stroke="brown" stroke-width="3"/>
<path d="M309,522 L327,471" stroke="brown" stroke-width="3"/>
<path d="M327,471 L355,494" stroke="brown" stroke-width="3"/>
<path d="M355,494 L367,484" stroke="brown" stroke-width="3"/>
<path d="M367,484 L366,505" stroke="brown" stroke-width="3"/>
<path d="M366,505 L412,479" stroke="brown" stroke-width="3"/>
<path d="M412,479 L451,512" stroke="brown" stroke-width="3"/>
<path d="M451,512 L481,513" stroke="brown" stroke-width="3"/>
<path d="M481,513 L538,499" stroke="brown" stroke-width="3"/>
<path d="M538,499 L553,496" stroke="brown" stroke-width="3"/>
<path d="M553,496 L561,504" stroke="brown" stroke-width="3"/>
<path d="M561,504 L624,505" stroke="brown" stroke-width="3"/>
<path d="M624,505 L613,535" stroke="brown" stroke-width="3"/>
<path d="M613,535 L616,546" stroke="brown" stroke-width="3"/>
<path d="M616,546 L605,452" stroke="brown" stroke-width="3"/>
<path d="M605,452 L611,391" stroke="brown" stroke-width="3"/>
<path d="M611,391 L658,360" stroke="brown" stroke-width="3"/>
<path d="M658,360 L604,343" stroke="brown" stroke-width="3"/>
<path d="M604,343 L624,309" stroke="brown" stroke-width="3"/>
<path d="M624,309 L587,299" stroke="brown" stroke-width="3"/>
<path d="M587,299 L579,219" stroke="brown" stroke-width="3"/>
<path d="M579,219 L591,199" stroke="brown" stroke-width="3"/>
<path d="M591,199 L573,184" stroke="brown" stroke-width="3"/>
<path d="M573,184 L545,152" stroke="brown" stroke-width="3"/>
<path d="M545,152 L511,166" stroke="brown" stroke-width="3"/>
<path d="M511,166 L515,133" stroke="brown" stroke-width="3"/>
<path d="M515,133 L479,108" stroke="brown" stroke-width="3"/>
<path d="M479,108 L461,120" stroke="brown" stroke-width="3"/>
<path d="M461,120 L424,115" stroke="brown" stroke-width="3"/>
<path d="M424,115 L422,123" stroke="brown" stroke-width="3"/>
<path d="M422,123 L380,145" stroke="brown" stroke-width="3"/>
<path d="M380,145 L375,65" stroke="brown" stroke-width="3"/>
<path d="M375,65 L373,66" stroke="brown" stroke-width="3"/>
<path d="M373,66 L368,69" stroke="brown" stroke-width="3"/>
<path d="M368,69 L366,65" stroke="brown" stroke-width="3"/>
<path d="M366,65 L400,400" stroke="brown" stroke-width="3"/>
<circle cx="691" cy="335" fill="red" r="6"/>
<circle cx="367" cy="484" fill="green" r="6"/>
<circle cx="537" cy="313" fill="red" r="6"/>
<circle cx="309" cy="522" fill="green" r="6"/>
<circle cx="587" cy="582" fill="red" r="6"/>
<circle cx="591" cy="199" fill="green" r="6"/>
<circle cx="582" cy="295" fill="red" r="6"/>
<circle cx="561" cy="504" fill="green" r="6"/>
<circle cx="429" cy="579" fill="red" r="6"/>
<circle cx="479" cy="108" fill="green" r="6"/>
<circle cx="433" cy="368" fill="red" r="6"/>
<circle cx="370" cy="601" fill="green" r="6"/>
<circle cx="366" cy="589" fill="red" r="6"/>
<circle cx="366" cy="65" fill="green" r="6"/>
<circle cx="251" cy="560" fill="red" r="6"/>
<circle cx="553" cy="496" fill="green" r="6"/>
<circle cx="545" cy="300" fill="red" r="6"/>
<circle cx="511" cy="166" fill="green" r="6"/>
<circle cx="718" cy="346" fill="red" r="6"/>
<circle cx="375" cy="65" fill="green" r="6"/>
<circle cx="414" cy="393" fill="red" r="6"/>
<circle cx="249" cy="606" fill="green" r="6"/>
<circle cx="745" cy="369" fill="red" r="6"/>
<circle cx="424" cy="115" fill="green" r="6"/>
<circle cx="537" cy="359" fill="red" r="6"/>
<circle cx="412" cy="479" fill="green" r="6"/>
<circle cx="739" cy="370" fill="red" r="6"/>
<circle cx="515" cy="133" fill="green" r="6"/>
<circle cx="735" cy="408" fill="red" r="6"/>
<circle cx="605" cy="452" fill="green" r="6"/>
<circle cx="603" cy="555" fill="red" r="6"/>
<circle cx="376" cy="603" fill="green" r="6"/>
<circle cx="518" cy="480" fill="red" r="6"/>
<circle cx="658" cy="360" fill="green" r="6"/>
<circle cx="537" cy="371" fill="red" r="6"/>
<circle cx="579" cy="219" fill="green" r="6"/>
<circle cx="637" cy="475" fill="red" r="6"/>
<circle cx="196" cy="567" fill="green" r="6"/>
<circle cx="726" cy="449" fill="red" r="6"/>
<circle cx="645" cy="474" fill="green" r="6"/>
<circle cx="593" cy="486" fill="red" r="6"/>
<circle cx="380" cy="145" fill="green" r="6"/>
<circle cx="505" cy="337" fill="red" r="6"/>
<circle cx="624" cy="309" fill="green" r="6"/>
<circle cx="719" cy="390" fill="red" r="6"/>
<circle cx="649" cy="521" fill="green" r="6"/>
<circle cx="420" cy="364" fill="red" r="6"/>
<circle cx="538" cy="499" fill="green" r="6"/>
<circle cx="438" cy="327" fill="red" r="6"/>
<circle cx="613" cy="535" fill="green" r="6"/>
<circle cx="671" cy="522" fill="red" r="6"/>
<circle cx="343" cy="543" fill="green" r="6"/>
<circle cx="617" cy="461" fill="red" r="6"/>
<circle cx="231" cy="622" fill="green" r="6"/>
<circle cx="632" cy="445" fill="red" r="6"/>
<circle cx="570" cy="297" fill="green" r="6"/>
<circle cx="507" cy="274" fill="red" r="6"/>
<circle cx="461" cy="120" fill="green" r="6"/>
<circle cx="526" cy="311" fill="red" r="6"/>
<circle cx="481" cy="513" fill="green" r="6"/>
<circle cx="679" cy="327" fill="red" r="6"/>
<circle cx="611" cy="391" fill="green" r="6"/>
<circle cx="529" cy="322" fill="red" r="6"/>
<circle cx="624" cy="383" fill="green" r="6"/>
<circle cx="427" cy="376" fill="red" r="6"/>
<circle cx="251" cy="633" fill="green" r="6"/>
<circle cx="589" cy="485" fill="red" r="6"/>
<circle cx="587" cy="299" fill="green" r="6"/>
<circle cx="502" cy="328" fill="red" r="6"/>
<circle cx="373" cy="66" fill="green" r="6"/>
<circle cx="717" cy="317" fill="red" r="6"/>
<circle cx="624" cy="505" fill="green" r="6"/>
<circle cx="445" cy="576" fill="red" r="6"/>
<circle cx="366" cy="505" fill="green" r="6"/>
<circle cx="649" cy="451" fill="red" r="6"/>
<circle cx="604" cy="343" fill="green" r="6"/>
<circle cx="189" cy="544" fill="red" r="6"/>
<circle cx="451" cy="512" fill="green" r="6"/>
<circle cx="374" cy="588" fill="red" r="6"/>
<circle cx="422" cy="123" fill="green" r="6"/>
<circle cx="535" cy="359" fill="red" r="6"/>
<circle cx="545" cy="152" fill="green" r="6"/>
<circle cx="211" cy="540" fill="red" r="6"/>
<circle cx="372" cy="579" fill="green" r="6"/>
<circle cx="629" cy="393" fill="red" r="6"/>
<circle cx="351" cy="558" fill="green" r="6"/>
<circle cx="562" cy="620" fill="red" r="6"/>
<circle cx="368" cy="69" fill="green" r="6"/>
<circle cx="395" cy="568" fill="red" r="6"/>
<circle cx="616" cy="546" fill="green" r="6"/>
<circle cx="329" cy="576" fill="red" r="6"/>
<circle cx="355" cy="494" fill="green" r="6"/>
<circle cx="653" cy="526" fill="red" r="6"/>
<circle cx="573" cy="184" fill="green" r="6"/>
<circle cx="388" cy="556" fill="red" r="6"/>
<circle cx="273" cy="575" fill="green" r="6"/>
<circle cx="664" cy="465" fill="red" r="6"/>
<circle cx="261" cy="628" fill="green" r="6"/>
<circle cx="475" cy="290" fill="red" r="6"/>
<circle cx="327" cy="471" fill="green" r="6"/>
<circle cx="400" cy="400" fill="gray" r="6"/>
</svg>