<svg height="810" id="vis" viewBox="-5 -5 810 810" width="810" xmlns="http://www.w3.org/2000/svg">
<rect fill="white" height="810" width="810" x="-5" y="-5"/>
<path d="M453,664 L592,230" stroke="lightgray" stroke-width="1"/>
<path d="M298,742 L653,538" stroke="lightgray" stroke-width="1"/>
<path d="M257,746 L579,470" stroke="lightgray" stroke-width="1"/>
<path d="M367,459 L661,366" stroke="lightgray" stroke-width="1"/>
<path d="M242,533 L212,220" stroke="lightgray" stroke-width="1"/>
<path d="M487,626 L646,621" stroke="lightgray" stroke-width="1"/>
<path d="M299,709 L646,556" stroke="lightgray" stroke-width="1"/>
<path d="M254,721 L359,423" stroke="lightgray" stroke-width="1"/>
<path d="M185,746 L670,474" stroke="lightgray" stroke-width="1"/>
<path d="M305,509 L270,135" stroke="lightgray" stroke-width="1"/>
<path d="M199,614 L376,424" stroke="lightgray" stroke-width="1"/>
<path d="M240,514 L690,239" stroke="lightgray" stroke-width="1"/>
<path d="M345,719 L303,321" stroke="lightgray" stroke-width="1"/>
<path d="M376,695 L472,628" stroke="lightgray" stroke-width="1"/>
<path d="M179,685 L331,95" stroke="lightgray" stroke-width="1"/>
<path d="M385,394 L683,406" stroke="lightgray" stroke-width="1"/>
<path d="M360,493 L480,592" stroke="lightgray" stroke-width="1"/>
<path d="M441,440 L289,137" stroke="lightgray" stroke-width="1"/>
<path d="M396,672 L594,474" stroke="lightgray" stroke-width="1"/>
<path d="M193,600 L310,270" stroke="lightgray" stroke-width="1"/>
<path d="M498,484 L678,555" stroke="lightgray" stroke-width="1"/>
<path d="M508,488 L295,366" stroke="lightgray" stroke-width="1"/>
<path d="M314,730 L442,509" stroke="lightgray" stroke-width="1"/>
<path d="M534,528 L760,410" stroke="lightgray" stroke-width="1"/>
<path d="M259,788 L342,131" stroke="lightgray" stroke-width="1"/>
<path d="M313,748 L441,463" stroke="lightgray" stroke-width="1"/>
<path d="M519,613 L567,369" stroke="lightgray" stroke-width="1"/>
<path d="M251,745 L621,362" stroke="lightgray" stroke-width="1"/>
<path d="M363,450 L339,61" stroke="lightgray" stroke-width="1"/>
<path d="M365,467 L471,183" stroke="lightgray" stroke-width="1"/>
<path d="M430,457 L677,254" stroke="lightgray" stroke-width="1"/>
<path d="M194,677 L643,324" stroke="lightgray" stroke-width="1"/>
<path d="M213,631 L567,623" stroke="lightgray" stroke-width="1"/>
<path d="M192,726 L408,462" stroke="lightgray" stroke-width="1"/>
<path d="M504,513 L304,190" stroke="lightgray" stroke-width="1"/>
<path d="M288,702 L260,290" stroke="lightgray" stroke-width="1"/>
<path d="M500,454 L277,375" stroke="lightgray" stroke-width="1"/>
<path d="M204,656 L524,236" stroke="lightgray" stroke-width="1"/>
<path d="M386,434 L565,430" stroke="lightgray" stroke-width="1"/>
<path d="M497,617 L758,467" stroke="lightgray" stroke-width="1"/>
<path d="M264,516 L464,461" stroke="lightgray" stroke-width="1"/>
<path d="M372,471 L305,324" stroke="lightgray" stroke-width="1"/>
<path d="M468,441 L606,387" stroke="lightgray" stroke-width="1"/>
<path d="M287,516 L757,407" stroke="lightgray" stroke-width="1"/>
<path d="M206,538 L551,252" stroke="lightgray" stroke-width="1"/>
<path d="M535,582 L249,107" stroke="lightgray" stroke-width="1"/>
<path d="M381,412 L708,532" stroke="lightgray" stroke-width="1"/>
<path d="M192,564 L406,445" stroke="lightgray" stroke-width="1"/>
<path d="M413,676 L752,530" stroke="lightgray" stroke-width="1"/>
<path d="M288,529 L359,27" stroke="lightgray" stroke-width="1"/>
<path d="M400,400 L385,394" stroke="brown" stroke-width="3"/>
<path d="M385,394 L381,412" stroke="brown" stroke-width="3"/>
<path d="M381,412 L386,434" stroke="brown" stroke-width="3"/>
<path d="M386,434 L363,450" stroke="brown" stroke-width="3"/>
<path d="M363,450 L367,459" stroke="brown" stroke-width="3"/>
<path d="M367,459 L365,467" stroke="brown" stroke-width="3"/>
<path d="M365,467 L372,471" stroke="brown" stroke-width="3"/>
<path d="M372,471 L360,493" stroke="brown" stroke-width="3"/>
<path d="M360,493 L305,509" stroke="brown" stroke-width="3"/>
<path d="M305,509 L287,516" stroke="brown" stroke-width="3"/>
<path d="M287,516 L288,529" stroke="brown" stroke-width="3"/>
<path d="M288,529 L264,516" stroke="brown" stroke-width="3"/>
<path d="M264,516 L240,514" stroke="brown" stroke-width="3"/>
<path d="M240,514 L242,533" stroke="brown" stroke-width="3"/>
<path d="M242,533 L206,538" stroke="brown" stroke-width="3"/>
<path d="M206,538 L192,564" stroke="brown" stroke-width="3"/>
<path d="M192,564 L193,600" stroke="brown" stroke-width="3"/>
<path d="M193,600 L199,614" stroke="brown" stroke-width="3"/>
<path d="M199,614 L213,631" stroke="brown" stroke-width="3"/>
<path d="M213,631 L204,656" stroke="brown" stroke-width="3"/>
<path d="M204,656 L194,677" stroke="brown" stroke-width="3"/>
<path d="M194,677 L179,685" stroke="brown" stroke-width="3"/>
<path d="M179,685 L192,726" stroke="brown" stroke-width="3"/>
<path d="M192,726 L185,746" stroke="brown" stroke-width="3"/>
<path d="M185,746 L251,745" stroke="brown" stroke-width="3"/>
<path d="M251,745 L257,746" stroke="brown" stroke-width="3"/>
<path d="M257,746 L259,788" stroke="brown" stroke-width="3"/>
<path d="M259,788 L254,721" stroke="brown" stroke-width="3"/>
<path d="M254,721 L288,702" stroke="brown" stroke-width="3"/>
<path d="M288,702 L299,709" stroke="brown" stroke-width="3"/>
<path d="M299,709 L298,742" stroke="brown" stroke-width="3"/>
<path d="M298,742 L313,748" stroke="brown" stroke-width="3"/>
<path d="M313,748 L314,730" stroke="brown" stroke-width="3"/>
<path d="M314,730 L345,719" stroke="brown" stroke-width="3"/>
<path d="M345,719 L376,695" stroke="brown" stroke-width="3"/>
<path d="M376,695 L396,672" stroke="brown" stroke-width="3"/>
<path d="M396,672 L413,676" stroke="brown" stroke-width="3"/>
<path d="M413,676 L453,664" stroke="brown" stroke-width="3"/>
<path d="M453,664 L487,626" stroke="brown" stroke-width="3"/>
<path d="M487,626 L497,617" stroke="brown" stroke-width="3"/>
<path d="M497,617 L519,613" stroke="brown" stroke-width="3"/>
<path d="M519,613 L535,582" stroke="brown" stroke-width="3"/>
<path d="M535,582 L534,528" stroke="brown" stroke-width="3"/>
<path d="M534,528 L504,513" stroke="brown" stroke-width="3"/>
<path d="M504,513 L508,488" stroke="brown" stroke-width="3"/>
<path d="M508,488 L498,484" stroke="brown" stroke-width="3"/>
<path d="M498,484 L500,454" stroke="brown" stroke-width="3"/>
<path d="M500,454 L468,441" stroke="brown" stroke-width="3"/>
<path d="M468,441 L441,440" stroke="brown" stroke-width="3"/>
<path d="M441,440 L430,457" stroke="brown" stroke-width="3"/>
<path d="M430,457 L442,509" stroke="brown" stroke-width="3"/>
<path d="M442,509 L441,463" stroke="brown" stroke-width="3"/>
<path d="M441,463 L464,461" stroke="brown" stroke-width="3"/>
<path d="M464,461 L408,462" stroke="brown" stroke-width="3"/>
<path d="M408,462 L406,445" stroke="brown" stroke-width="3"/>
<path d="M406,445 L376,424" stroke="brown" stroke-width="3"/>
<path d="M376,424 L359,423" stroke="brown" stroke-width="3"/>
<path d="M359,423 L295,366" stroke="brown" stroke-width="3"/>
<path d="M295,366 L277,375" stroke="brown" stroke-width="3"/>
<path d="M277,375 L305,324" stroke="brown" stroke-width="3"/>
<path d="M305,324 L303,321" stroke="brown" stroke-width="3"/>
<path d="M303,321 L310,270" stroke="brown" stroke-width="3"/>
<path d="M310,270 L260,290" stroke="brown" stroke-width="3"/>
<path d="M260,290 L212,220" stroke="brown" stroke-width="3"/>
<path d="M212,220 L304,190" stroke="brown" stroke-width="3"/>
<path d="M304,190 L289,137" stroke="brown" stroke-width="3"/>
<path d="M289,137 L270,135" stroke="brown" stroke-width="3"/>
<path d="M270,135 L249,107" stroke="brown" stroke-width="3"/>
<path d="M249,107 L331,95" stroke="brown" stroke-width="3"/>
<path d="M331,95 L339,61" stroke="brown" stroke-width="3"/>
<path d="M339,61 L359,27" stroke="brown" stroke-width="3"/>
<path d="M359,27 L342,131" stroke="brown" stroke-width="3"/>
<path d="M342,131 L471,183" stroke="brown" stroke-width="3"/>
<path d="M471,183 L524,236" stroke="brown" stroke-width="3"/>
<path d="M524,236 L551,252" stroke="brown" stroke-width="3"/>
<path d="M551,252 L592,230" stroke="brown" stroke-width="3"/>
<path d="M592,230 L690,239" stroke="brown" stroke-width="3"/>
<path d="M690,239 L677,254" stroke="brown" stroke-width="3"/>
<path d="M677,254 L643,324" stroke="brown" stroke-width="3"/>
<path d="M643,324 L661,366" stroke="brown" stroke-width="3"/>
<path d="M661,366 L621,362" stroke="brown" stroke-width="3"/>
<path d="M621,362 L606,387" stroke="brown" stroke-width="3"/>
<path d="M606,387 L567,369" stroke="brown" stroke-width="3"/>
<path d="M567,369 L565,430" stroke="brown" stroke-width="3"/>
<path d="M565,430 L579,470" stroke="brown" stroke-width="3"/>
<path d="M579,470 L594,474" stroke="brown" stroke-width="3"/>
<path d="M594,474 L670,474" stroke="brown" stroke-width="3"/>
<path d="M670,474 L683,406" stroke="brown" stroke-width="3"/>
<path d="M683,406 L757,407" stroke="brown" stroke-width="3"/>
<path d="M757,407 L760,410" stroke="brown" stroke-width="3"/>
<path d="M760,410 L758,467" stroke="brown" stroke-width="3"/>
<path d="M758,467 L752,530" stroke="brown" stroke-width="3"/>
<path d="M752,530 L708,532" stroke="brown" stroke-width="3"/>
<path d="M708,532 L678,555" stroke="brown" stroke-width="3"/>
<path d="M678,555 L646,556" stroke="brown" stroke-width="3"/>
<path d="M646,556 L653,538" stroke="brown" stroke-width="3"/>
<path d="M653,538 L646,621" stroke="brown" stroke-width="3"/>
<path d="M646,621 L567,623" stroke="brown" stroke-width="3"/>
<path d="M567,623 L472,628" stroke="brown" stroke-width="3"/>
<path d="M472,628 L480,592" stroke="brown" stroke-width="3"/>
<path d="M480,592 L400,400" stroke="brown" stroke-width="3"/>
<circle cx="453" cy="664" fill="red" r="6"/>
<circle cx="592" cy="230" fill="green" r="6"/>
<circle cx="298" cy="742" fill="red" r="6"/>
<circle cx="653" cy="538" fill="green" r="6"/>
<circle cx="257" cy="746" fill="red" r="6"/>
<circle cx="579" cy="470" fill="green" r="6"/>
<circle cx="367" cy="459" fill="red" r="6"/>
<circle cx="661" cy="366" fill="green" r="6"/>
<circle cx="242" cy="533" fill="red" r="6"/>
<circle cx="212" cy="220" fill="green" r="6"/>
<circle cx="487" cy="626" fill="red" r="6"/>
<circle cx="646" cy="621" fill="green" r="6"/>
<circle cx="299" cy="709" fill="red" r="6"/>
<circle cx="646" cy="556" fill="green" r="6"/>
<circle cx="254" cy="721" fill="red" r="6"/>
<circle cx="359" cy="423" fill="green" r="6"/>
<circle cx="185" cy="746" fill="red" r="6"/>
<circle cx="670" cy="474" fill="green" r="6"/>
<circle cx="305" cy="509" fill="red" r="6"/>
<circle cx="270" cy="135" fill="green" r="6"/>
<circle cx="199" cy="614" fill="red" r="6"/>
<circle cx="376" cy="424" fill="green" r="6"/>
<circle cx="240" cy="514" fill="red" r="6"/>
<circle cx="690" cy="239" fill="green" r="6"/>
<circle cx="345" cy="719" fill="red" r="6"/>
<circle cx="303" cy="321" fill="green" r="6"/>
<circle cx="376" cy="695" fill="red" r="6"/>
<circle cx="472" cy="628" fill="green" r="6"/>
<circle cx="179" cy="685" fill="red" r="6"/>
<circle cx="331" cy="95" fill="green" r="6"/>
<circle cx="385" cy="394" fill="red" r="6"/>
<circle cx="683" cy="406" fill="green" r="6"/>
<circle cx="360" cy="493" fill="red" r="6"/>
<circle cx="480" cy="592" fill="green" r="6"/>
<circle cx="441" cy="440" fill="red" r="6"/>
<circle cx="289" cy="137" fill="green" r="6"/>
<circle cx="396" cy="672" fill="red" r="6"/>
<circle cx="594" cy="474" fill="green" r="6"/>
<circle cx="193" cy="600" fill="red" r="6"/>
<circle cx="310" cy="270" fill="green" r="6"/>
<circle cx="498" cy="484" fill="red" r="6"/>
<circle cx="678" cy="555" fill="green" r="6"/>
<circle cx="508" cy="488" fill="red" r="6"/>
<circle cx="295" cy="366" fill="green" r="6"/>
<circle cx="314" cy="730" fill="red" r="6"/>
<circle cx="442" cy="509" fill="green" r="6"/>
<circle cx="534" cy="528" fill="red" r="6"/>
<circle cx="760" cy="410" fill="green" r="6"/>
<circle cx="259" cy="788" fill="red" r="6"/>
<circle cx="342" cy="131" fill="green" r="6"/>
<circle cx="313" cy="748" fill="red" r="6"/>
<circle cx="441" cy="463" fill="green" r="6"/>
<circle cx="519" cy="613" fill="red" r="6"/>
<circle cx="567" cy="369" fill="green" r="6"/>
<circle cx="251" cy="745" fill="red" r="6"/>
<circle cx="621" cy="362" fill="green" r="6"/>
<circle cx="363" cy="450" fill="red" r="6"/>
<circle cx="339" cy="61" fill="green" r="6"/>
<circle cx="365" cy="467" fill="red" r="6"/>
<circle cx="471" cy="183" fill="green" r="6"/>
<circle cx="430" cy="457" fill="red" r="6"/>
<circle cx="677" cy="254" fill="green" r="6"/>
<circle cx="194" cy="677" fill="red" r="6"/>
<circle cx="643" cy="324" fill="green" r="6"/>
<circle cx="213" cy="631" fill="red" r="6"/>
<circle cx="567" cy="623" fill="green" r="6"/>
<circle cx="192" cy="726" fill="red" r="6"/>
<circle cx="408" cy="462" fill="green" r="6"/>
<circle cx="504" cy="513" fill="red" r="6"/>
<circle cx="304" cy="190" fill="green" r="6"/>
<circle cx="288" cy="702" fill="red" r="6"/>
<circle cx="260" cy="290" fill="green" r="6"/>
<circle cx="500" cy="454" fill="red" r="6"/>
<circle cx="277" cy="375" fill="green" r="6"/>
<circle cx="204" cy="656" fill="red" r="6"/>
<circle cx="524" cy="236" fill="green" r="6"/>
<circle cx="386" cy="434" fill="red" r="6"/>
<circle cx="565" cy="430" fill="green" r="6"/>
<circle cx="497" cy="617" fill="red" r="6"/>
<circle cx="758" cy="467" fill="green" r="6"/>
<circle cx="264" cy="516" fill="red" r="6"/>
<circle cx="464" cy="461" fill="green" r="6"/>
<circle cx="372" cy="471" fill="red" r="6"/>
<circle cx="305" cy="324" fill="green" r="6"/>
<circle cx="468" cy="441" fill="red" r="6"/>
<circle cx="606" cy="387" fill="green" r="6"/>
<circle cx="287" cy="516" fill="red" r="6"/>
<circle cx="757" cy="407" fill="green" r="6"/>
<circle cx="206" cy="538" fill="red" r="6"/>
<circle cx="551" cy="252" fill="green" r="6"/>
<circle cx="535" cy="582" fill="red" r="6"/>
<circle cx="249" cy="107" fill="green" r="6"/>
<circle cx="381" cy="412" fill="red" r="6"/>
<circle cx="708" cy="532" fill="green" r="6"/>
<circle cx="192" cy="564" fill="red" r="6"/>
<circle cx="406" cy="445" fill="green" r="6"/>
<circle cx="413" cy="676" fill="red" r="6"/>
<circle cx="752" cy="530" fill="green" r="6"/>
<circle cx="288" cy="529" fill="red" r="6"/>
<circle cx="359" cy="27" fill="green" r="6"/>
<circle cx="400" cy="400" fill="gray" r="6"/>
</svg>