<svg height="810" id="vis" viewBox="-5 -5 810 810" width="810" xmlns="http://www.w3.org/2000/svg">
<rect fill="white" height="810" width="810" x="-5" y="-5"/>
<path d="M605,455 L538,554" stroke="lightgray" stroke-width="1"/>
<path d="M394,497 L186,514" stroke="lightgray" stroke-width="1"/>
<path d="M537,313 L309,522" stroke="lightgray" stroke-width="1"/>
<path d="M582,295 L561,504" stroke="lightgray" stroke-width="1"/>
<path d="M517,323 L413,628" stroke="lightgray" stroke-width="1"/>
<path d="M428,584 L456,390" stroke="lightgray" stroke-width="1"/>
<path d="M428,504 L471,603" stroke="lightgray" stroke-width="1"/>
<path d="M412,459 L377,526" stroke="lightgray" stroke-width="1"/>
<path d="M304,602 L446,361" stroke="lightgray" stroke-width="1"/>
<path d="M436,492 L547,483" stroke="lightgray" stroke-width="1"/>
<path d="M363,317 L210,325" stroke="lightgray" stroke-width="1"/>
<path d="M307,463 L157,312" stroke="lightgray" stroke-width="1"/>
<path d="M414,393 L249,606" stroke="lightgray" stroke-width="1"/>
<path d="M467,349 L345,349" stroke="lightgray" stroke-width="1"/>
<path d="M498,292 L322,336" stroke="lightgray" stroke-width="1"/>
<path d="M321,429 L239,610" stroke="lightgray" stroke-width="1"/>
<path d="M542,279 L306,344" stroke="lightgray" stroke-width="1"/>
<path d="M311,369 L531,548" stroke="lightgray" stroke-width="1"/>
<path d="M378,411 L514,604" stroke="lightgray" stroke-width="1"/>
<path d="M547,358 L466,619" stroke="lightgray" stroke-width="1"/>
<path d="M610,333 L149,311" stroke="lightgray" stroke-width="1"/>
<path d="M434,606 L526,408" stroke="lightgray" stroke-width="1"/>
<path d="M522,420 L355,312" stroke="lightgray" stroke-width="1"/>
<path d="M355,155 L258,548" stroke="lightgray" stroke-width="1"/>
<path d="M420,364 L538,499" stroke="lightgray" stroke-width="1"/>
<path d="M438,327 L613,535" stroke="lightgray" stroke-width="1"/>
<path d="M404,593 L551,591" stroke="lightgray" stroke-width="1"/>
<path d="M336,169 L276,613" stroke="lightgray" stroke-width="1"/>
<path d="M500,284 L447,588" stroke="lightgray" stroke-width="1"/>
<path d="M286,574 L338,348" stroke="lightgray" stroke-width="1"/>
<path d="M336,426 L599,550" stroke="lightgray" stroke-width="1"/>
<path d="M459,406 L329,534" stroke="lightgray" stroke-width="1"/>
<path d="M398,173 L540,461" stroke="lightgray" stroke-width="1"/>
<path d="M474,198 L160,447" stroke="lightgray" stroke-width="1"/>
<path d="M350,185 L577,512" stroke="lightgray" stroke-width="1"/>
<path d="M524,456 L224,361" stroke="lightgray" stroke-width="1"/>
<path d="M445,576 L366,505" stroke="lightgray" stroke-width="1"/>
<path d="M319,589 L478,411" stroke="lightgray" stroke-width="1"/>
<path d="M461,326 L323,363" stroke="lightgray" stroke-width="1"/>
<path d="M289,350 L429,649" stroke="lightgray" stroke-width="1"/>
<path d="M631,361 L518,606" stroke="lightgray" stroke-width="1"/>
<path d="M300,310 L207,574" stroke="lightgray" stroke-width="1"/>
<path d="M543,308 L518,426" stroke="lightgray" stroke-width="1"/>
<path d="M433,188 L556,616" stroke="lightgray" stroke-width="1"/>
<path d="M395,568 L616,546" stroke="lightgray" stroke-width="1"/>
<path d="M329,576 L355,494" stroke="lightgray" stroke-width="1"/>
<path d="M294,549 L401,322" stroke="lightgray" stroke-width="1"/>
<path d="M388,556 L273,575" stroke="lightgray" stroke-width="1"/>
<path d="M466,302 L242,343" stroke="lightgray" stroke-width="1"/>
<path d="M475,290 L327,471" stroke="lightgray" stroke-width="1"/>
<path d="M400,400 L414,393" stroke="brown" stroke-width="3"/>
<path d="M414,393 L420,364" stroke="brown" stroke-width="3"/>
<path d="M420,364 L438,327" stroke="brown" stroke-width="3"/>
<path d="M438,327 L461,326" stroke="brown" stroke-width="3"/>
<path d="M461,326 L467,349" stroke="brown" stroke-width="3"/>
<path d="M467,349 L466,302" stroke="brown" stroke-width="3"/>
<path d="M466,302 L475,290" stroke="brown" stroke-width="3"/>
<path d="M475,290 L498,292" stroke="brown" stroke-width="3"/>
<path d="M498,292 L500,284" stroke="brown" stroke-width="3"/>
<path d="M500,284 L542,279" stroke="brown" stroke-width="3"/>
<path d="M542,279 L543,308" stroke="brown" stroke-width="3"/>
<path d="M543,308 L537,313" stroke="brown" stroke-width="3"/>
<path d="M537,313 L517,323" stroke="brown" stroke-width="3"/>
<path d="M517,323 L547,358" stroke="brown" stroke-width="3"/>
<path d="M547,358 L522,420" stroke="brown" stroke-width="3"/>
<path d="M522,420 L518,426" stroke="brown" stroke-width="3"/>
<path d="M518,426 L524,456" stroke="brown" stroke-width="3"/>
<path d="M524,456 L605,455" stroke="brown" stroke-width="3"/>
<path d="M605,455 L631,361" stroke="brown" stroke-width="3"/>
<path d="M631,361 L610,333" stroke="brown" stroke-width="3"/>
<path d="M610,333 L582,295" stroke="brown" stroke-width="3"/>
<path d="M582,295 L474,198" stroke="brown" stroke-width="3"/>
<path d="M474,198 L433,188" stroke="brown" stroke-width="3"/>
<path d="M433,188 L398,173" stroke="brown" stroke-width="3"/>
<path d="M398,173 L350,185" stroke="brown" stroke-width="3"/>
<path d="M350,185 L336,169" stroke="brown" stroke-width="3"/>
<path d="M336,169 L355,155" stroke="brown" stroke-width="3"/>
<path d="M355,155 L363,317" stroke="brown" stroke-width="3"/>
<path d="M363,317 L355,312" stroke="brown" stroke-width="3"/>
<path d="M355,312 L300,310" stroke="brown" stroke-width="3"/>
<path d="M300,310 L289,350" stroke="brown" stroke-width="3"/>
<path d="M289,350 L311,369" stroke="brown" stroke-width="3"/>
<path d="M311,369 L323,363" stroke="brown" stroke-width="3"/>
<path d="M323,363 L321,429" stroke="brown" stroke-width="3"/>
<path d="M321,429 L336,426" stroke="brown" stroke-width="3"/>
<path d="M336,426 L378,411" stroke="brown" stroke-width="3"/>
<path d="M378,411 L412,459" stroke="brown" stroke-width="3"/>
<path d="M412,459 L459,406" stroke="brown" stroke-width="3"/>
<path d="M459,406 L428,504" stroke="brown" stroke-width="3"/>
<path d="M428,504 L436,492" stroke="brown" stroke-width="3"/>
<path d="M436,492 L394,497" stroke="brown" stroke-width="3"/>
<path d="M394,497 L388,556" stroke="brown" stroke-width="3"/>
<path d="M388,556 L395,568" stroke="brown" stroke-width="3"/>
<path d="M395,568 L404,593" stroke="brown" stroke-width="3"/>
<path d="M404,593 L428,584" stroke="brown" stroke-width="3"/>
<path d="M428,584 L445,576" stroke="brown" stroke-width="3"/>
<path d="M445,576 L447,588" stroke="brown" stroke-width="3"/>
<path d="M447,588 L434,606" stroke="brown" stroke-width="3"/>
<path d="M434,606 L319,589" stroke="brown" stroke-width="3"/>
<path d="M319,589 L329,576" stroke="brown" stroke-width="3"/>
<path d="M329,576 L286,574" stroke="brown" stroke-width="3"/>
<path d="M286,574 L273,575" stroke="brown" stroke-width="3"/>
<path d="M273,575 L294,549" stroke="brown" stroke-width="3"/>
<path d="M294,549 L304,602" stroke="brown" stroke-width="3"/>
<path d="M304,602 L307,463" stroke="brown" stroke-width="3"/>
<path d="M307,463 L327,471" stroke="brown" stroke-width="3"/>
<path d="M327,471 L327,471" stroke="brown" stroke-width="3"/>
<path d="M327,471 L327,471" stroke="brown" stroke-width="3"/>
<path d="M327,471 L355,494" stroke="brown" stroke-width="3"/>
<path d="M355,494 L355,494" stroke="brown" stroke-width="3"/>
<path d="M355,494 L355,494" stroke="brown" stroke-width="3"/>
<path d="M355,494 L366,505" stroke="brown" stroke-width="3"/>
<path d="M366,505 L366,505" stroke="brown" stroke-width="3"/>
<path d="M366,505 L366,505" stroke="brown" stroke-width="3"/>
<path d="M366,505 L377,526" stroke="brown" stroke-width="3"/>
<path d="M377,526 L377,526" stroke="brown" stroke-width="3"/>
<path d="M377,526 L377,526" stroke="brown" stroke-width="3"/>
<path d="M377,526 L329,534" stroke="brown" stroke-width="3"/>
<path d="M329,534 L329,534" stroke="brown" stroke-width="3"/>
<path d="M329,534 L329,534" stroke="brown" stroke-width="3"/>
<path d="M329,534 L309,522" stroke="brown" stroke-width="3"/>
<path d="M309,522 L309,522" stroke="brown" stroke-width="3"/>
<path d="M309,522 L309,522" stroke="brown" stroke-width="3"/>
<path d="M309,522 L258,548" stroke="brown" stroke-width="3"/>
<path d="M258,548 L258,548" stroke="brown" stroke-width="3"/>
<path d="M258,548 L258,548" stroke="brown" stroke-width="3"/>
<path d="M258,548 L273,575" stroke="brown" stroke-width="3"/>
<path d="M273,575 L273,575" stroke="brown" stroke-width="3"/>
<path d="M273,575 L276,613" stroke="brown" stroke-width="3"/>
<path d="M276,613 L276,613" stroke="brown" stroke-width="3"/>
<path d="M276,613 L276,613" stroke="brown" stroke-width="3"/>
<path d="M276,613 L249,606" stroke="brown" stroke-width="3"/>
<path d="M249,606 L239,610" stroke="brown" stroke-width="3"/>
<path d="M239,610 L249,606" stroke="brown" stroke-width="3"/>
<path d="M249,606 L249,606" stroke="brown" stroke-width="3"/>
<path d="M249,606 L239,610" stroke="brown" stroke-width="3"/>
<path d="M239,610 L239,610" stroke="brown" stroke-width="3"/>
<path d="M239,610 L207,574" stroke="brown" stroke-width="3"/>
<path d="M207,574 L207,574" stroke="brown" stroke-width="3"/>
<path d="M207,574 L207,574" stroke="brown" stroke-width="3"/>
<path d="M207,574 L186,514" stroke="brown" stroke-width="3"/>
<path d="M186,514 L186,514" stroke="brown" stroke-width="3"/>
<path d="M186,514 L186,514" stroke="brown" stroke-width="3"/>
<path d="M186,514 L160,447" stroke="brown" stroke-width="3"/>
<path d="M160,447 L160,447" stroke="brown" stroke-width="3"/>
<path d="M160,447 L160,447" stroke="brown" stroke-width="3"/>
<path d="M160,447 L157,312" stroke="brown" stroke-width="3"/>
<path d="M157,312 L149,311" stroke="brown" stroke-width="3"/>
<path d="M149,311 L157,312" stroke="brown" stroke-width="3"/>
<path d="M157,312 L157,312" stroke="brown" stroke-width="3"/>
<path d="M157,312 L149,311" stroke="brown" stroke-width="3"/>
<path d="M149,311 L149,311" stroke="brown" stroke-width="3"/>
<path d="M149,311 L210,325" stroke="brown" stroke-width="3"/>
<path d="M210,325 L210,325" stroke="brown" stroke-width="3"/>
<path d="M210,325 L210,325" stroke="brown" stroke-width="3"/>
<path d="M210,325 L242,343" stroke="brown" stroke-width="3"/>
<path d="M242,343 L242,343" stroke="brown" stroke-width="3"/>
<path d="M242,343 L242,343" stroke="brown" stroke-width="3"/>
<path d="M242,343 L224,361" stroke="brown" stroke-width="3"/>
<path d="M224,361 L224,361" stroke="brown" stroke-width="3"/>
<path d="M224,361 L224,361" stroke="brown" stroke-width="3"/>
<path d="M224,361 L306,344" stroke="brown" stroke-width="3"/>
<path d="M306,344 L306,344" stroke="brown" stroke-width="3"/>
<path d="M306,344 L306,344" stroke="brown" stroke-width="3"/>
<path d="M306,344 L322,336" stroke="brown" stroke-width="3"/>
<path d="M322,336 L322,336" stroke="brown" stroke-width="3"/>
<path d="M322,336 L322,336" stroke="brown" stroke-width="3"/>
<path d="M322,336 L323,363" stroke="brown" stroke-width="3"/>
<path d="M323,363 L323,363" stroke="brown" stroke-width="3"/>
<path d="M323,363 L338,348" stroke="brown" stroke-width="3"/>
<path d="M338,348 L338,348" stroke="brown" stroke-width="3"/>
<path d="M338,348 L338,348" stroke="brown" stroke-width="3"/>
<path d="M338,348 L345,349" stroke="brown" stroke-width="3"/>
<path d="M345,349 L345,349" stroke="brown" stroke-width="3"/>
<path d="M345,349 L345,349" stroke="brown" stroke-width="3"/>
<path d="M345,349 L355,312" stroke="brown" stroke-width="3"/>
<path d="M355,312 L355,312" stroke="brown" stroke-width="3"/>
<path d="M355,312 L401,322" stroke="brown" stroke-width="3"/>
<path d="M401,322 L401,322" stroke="brown" stroke-width="3"/>
<path d="M401,322 L401,322" stroke="brown" stroke-width="3"/>
<path d="M401,322 L446,361" stroke="brown" stroke-width="3"/>
<path d="M446,361 L446,361" stroke="brown" stroke-width="3"/>
<path d="M446,361 L446,361" stroke="brown" stroke-width="3"/>
<path d="M446,361 L456,390" stroke="brown" stroke-width="3"/>
<path d="M456,390 L456,390" stroke="brown" stroke-width="3"/>
<path d="M456,390 L456,390" stroke="brown" stroke-width="3"/>
<path d="M456,390 L478,411" stroke="brown" stroke-width="3"/>
<path d="M478,411 L478,411" stroke="brown" stroke-width="3"/>
<path d="M478,411 L478,411" stroke="brown" stroke-width="3"/>
<path d="M478,411 L526,408" stroke="brown" stroke-width="3"/>
<path d="M526,408 L526,408" stroke="brown" stroke-width="3"/>
<path d="M526,408 L526,408" stroke="brown" stroke-width="3"/>
<path d="M526,408 L518,426" stroke="brown" stroke-width="3"/>
<path d="M518,426 L518,426" stroke="brown" stroke-width="3"/>
<path d="M518,426 L540,461" stroke="brown" stroke-width="3"/>
<path d="M540,461 L540,461" stroke="brown" stroke-width="3"/>
<path d="M540,461 L540,461" stroke="brown" stroke-width="3"/>
<path d="M540,461 L547,483" stroke="brown" stroke-width="3"/>
<path d="M547,483 L547,483" stroke="brown" stroke-width="3"/>
<path d="M547,483 L547,483" stroke="brown" stroke-width="3"/>
<path d="M547,483 L538,499" stroke="brown" stroke-width="3"/>
<path d="M538,499 L538,499" stroke="brown" stroke-width="3"/>
<path d="M538,499 L538,499" stroke="brown" stroke-width="3"/>
<path d="M538,499 L561,504" stroke="brown" stroke-width="3"/>
<path d="M561,504 L561,504" stroke="brown" stroke-width="3"/>
<path d="M561,504 L561,504" stroke="brown" stroke-width="3"/>
<path d="M561,504 L577,512" stroke="brown" stroke-width="3"/>
<path d="M577,512 L577,512" stroke="brown" stroke-width="3"/>
<path d="M577,512 L577,512" stroke="brown" stroke-width="3"/>
<path d="M577,512 L613,535" stroke="brown" stroke-width="3"/>
<path d="M613,535 L613,535" stroke="brown" stroke-width="3"/>
<path d="M613,535 L613,535" stroke="brown" stroke-width="3"/>
<path d="M613,535 L616,546" stroke="brown" stroke-width="3"/>
<path d="M616,546 L616,546" stroke="brown" stroke-width="3"/>
<path d="M616,546 L616,546" stroke="brown" stroke-width="3"/>
<path d="M616,546 L599,550" stroke="brown" stroke-width="3"/>
<path d="M599,550 L599,550" stroke="brown" stroke-width="3"/>
<path d="M599,550 L599,550" stroke="brown" stroke-width="3"/>
<path d="M599,550 L538,554" stroke="brown" stroke-width="3"/>
<path d="M538,554 L531,548" stroke="brown" stroke-width="3"/>
<path d="M531,548 L538,554" stroke="brown" stroke-width="3"/>
<path d="M538,554 L538,554" stroke="brown" stroke-width="3"/>
<path d="M538,554 L531,548" stroke="brown" stroke-width="3"/>
<path d="M531,548 L531,548" stroke="brown" stroke-width="3"/>
<path d="M531,548 L551,591" stroke="brown" stroke-width="3"/>
<path d="M551,591 L551,591" stroke="brown" stroke-width="3"/>
<path d="M551,591 L551,591" stroke="brown" stroke-width="3"/>
<path d="M551,591 L556,616" stroke="brown" stroke-width="3"/>
<path d="M556,616 L556,616" stroke="brown" stroke-width="3"/>
<path d="M556,616 L556,616" stroke="brown" stroke-width="3"/>
<path d="M556,616 L518,606" stroke="brown" stroke-width="3"/>
<path d="M518,606 L514,604" stroke="brown" stroke-width="3"/>
<path d="M514,604 L518,606" stroke="brown" stroke-width="3"/>
<path d="M518,606 L518,606" stroke="brown" stroke-width="3"/>
<path d="M518,606 L514,604" stroke="brown" stroke-width="3"/>
<path d="M514,604 L514,604" stroke="brown" stroke-width="3"/>
<path d="M514,604 L471,603" stroke="brown" stroke-width="3"/>
<path d="M471,603 L471,603" stroke="brown" stroke-width="3"/>
<path d="M471,603 L471,603" stroke="brown" stroke-width="3"/>
<path d="M471,603 L466,619" stroke="brown" stroke-width="3"/>
<path d="M466,619 L466,619" stroke="brown" stroke-width="3"/>
<path d="M466,619 L466,619" stroke="brown" stroke-width="3"/>
<path d="M466,619 L447,588" stroke="brown" stroke-width="3"/>
<path d="M447,588 L447,588" stroke="brown" stroke-width="3"/>
<path d="M447,588 L413,628" stroke="brown" stroke-width="3"/>
<path d="M413,628 L413,628" stroke="brown" stroke-width="3"/>
<path d="M413,628 L413,628" stroke="brown" stroke-width="3"/>
<path d="M413,628 L429,649" stroke="brown" stroke-width="3"/>
<path d="M429,649 L429,649" stroke="brown" stroke-width="3"/>
<path d="M429,649 L429,649" stroke="brown" stroke-width="3"/>
<path d="M429,649 L400,400" stroke="brown" stroke-width="3"/>
<circle cx="605" cy="455" fill="red" r="6"/>
<circle cx="538" cy="554" fill="green" r="6"/>
<circle cx="394" cy="497" fill="red" r="6"/>
<circle cx="186" cy="514" fill="green" r="6"/>
<circle cx="537" cy="313" fill="red" r="6"/>
<circle cx="309" cy="522" fill="green" r="6"/>
<circle cx="582" cy="295" fill="red" r="6"/>
<circle cx="561" cy="504" fill="green" r="6"/>
<circle cx="517" cy="323" fill="red" r="6"/>
<circle cx="413" cy="628" fill="green" r="6"/>
<circle cx="428" cy="584" fill="red" r="6"/>
<circle cx="456" cy="390" fill="green" r="6"/>
<circle cx="428" cy="504" fill="red" r="6"/>
<circle cx="471" cy="603" fill="green" r="6"/>
<circle cx="412" cy="459" fill="red" r="6"/>
<circle cx="377" cy="526" fill="green" r="6"/>
<circle cx="304" cy="602" fill="red" r="6"/>
<circle cx="446" cy="361" fill="green" r="6"/>
<circle cx="436" cy="492" fill="red" r="6"/>
<circle cx="547" cy="483" fill="green" r="6"/>
<circle cx="363" cy="317" fill="red" r="6"/>
<circle cx="210" cy="325" fill="green" r="6"/>
<circle cx="307" cy="463" fill="red" r="6"/>
<circle cx="157" cy="312" fill="green" r="6"/>
<circle cx="414" cy="393" fill="red" r="6"/>
<circle cx="249" cy="606" fill="green" r="6"/>
<circle cx="467" cy="349" fill="red" r="6"/>
<circle cx="345" cy="349" fill="green" r="6"/>
<circle cx="498" cy="292" fill="red" r="6"/>
<circle cx="322" cy="336" fill="green" r="6"/>
<circle cx="321" cy="429" fill="red" r="6"/>
<circle cx="239" cy="610" fill="green" r="6"/>
<circle cx="542" cy="279" fill="red" r="6"/>
<circle cx="306" cy="344" fill="green" r="6"/>
<circle cx="311" cy="369" fill="red" r="6"/>
<circle cx="531" cy="548" fill="green" r="6"/>
<circle cx="378" cy="411" fill="red" r="6"/>
<circle cx="514" cy="604" fill="green" r="6"/>
<circle cx="547" cy="358" fill="red" r="6"/>
<circle cx="466" cy="619" fill="green" r="6"/>
<circle cx="610" cy="333" fill="red" r="6"/>
<circle cx="149" cy="311" fill="green" r="6"/>
<circle cx="434" cy="606" fill="red" r="6"/>
<circle cx="526" cy="408" fill="green" r="6"/>
<circle cx="522" cy="420" fill="red" r="6"/>
<circle cx="355" cy="312" fill="green" r="6"/>
<circle cx="355" cy="155" fill="red" r="6"/>
<circle cx="258" cy="548" fill="green" r="6"/>
<circle cx="420" cy="364" fill="red" r="6"/>
<circle cx="538" cy="499" fill="green" r="6"/>
<circle cx="438" cy="327" fill="red" r="6"/>
<circle cx="613" cy="535" fill="green" r="6"/>
<circle cx="404" cy="593" fill="red" r="6"/>
<circle cx="551" cy="591" fill="green" r="6"/>
<circle cx="336" cy="169" fill="red" r="6"/>
<circle cx="276" cy="613" fill="green" r="6"/>
<circle cx="500" cy="284" fill="red" r="6"/>
<circle cx="447" cy="588" fill="green" r="6"/>
<circle cx="286" cy="574" fill="red" r="6"/>
<circle cx="338" cy="348" fill="green" r="6"/>
<circle cx="336" cy="426" fill="red" r="6"/>
<circle cx="599" cy="550" fill="green" r="6"/>
<circle cx="459" cy="406" fill="red" r="6"/>
<circle cx="329" cy="534" fill="green" r="6"/>
<circle cx="398" cy="173" fill="red" r="6"/>
<circle cx="540" cy="461" fill="green" r="6"/>
<circle cx="474" cy="198" fill="red" r="6"/>
<circle cx="160" cy="447" fill="green" r="6"/>
<circle cx="350" cy="185" fill="red" r="6"/>
<circle cx="577" cy="512" fill="green" r="6"/>
<circle cx="524" cy="456" fill="red" r="6"/>
<circle cx="224" cy="361" fill="green" r="6"/>
<circle cx="445" cy="576" fill="red" r="6"/>
<circle cx="366" cy="505" fill="green" r="6"/>
<circle cx="319" cy="589" fill="red" r="6"/>
<circle cx="478" cy="411" fill="green" r="6"/>
<circle cx="461" cy="326" fill="red" r="6"/>
<circle cx="323" cy="363" fill="green" r="6"/>
<circle cx="289" cy="350" fill="red" r="6"/>
<circle cx="429" cy="649" fill="green" r="6"/>
<circle cx="631" cy="361" fill="red" r="6"/>
<circle cx="518" cy="606" fill="green" r="6"/>
<circle cx="300" cy="310" fill="red" r="6"/>
<circle cx="207" cy="574" fill="green" r="6"/>
<circle cx="543" cy="308" fill="red" r="6"/>
<circle cx="518" cy="426" fill="green" r="6"/>
<circle cx="433" cy="188" fill="red" r="6"/>
<circle cx="556" cy="616" fill="green" r="6"/>
<circle cx="395" cy="568" fill="red" r="6"/>
<circle cx="616" cy="546" fill="green" r="6"/>
<circle cx="329" cy="576" fill="red" r="6"/>
<circle cx="355" cy="494" fill="green" r="6"/>
<circle cx="294" cy="549" fill="red" r="6"/>
<circle cx="401" cy="322" fill="green" r="6"/>
<circle cx="388" cy="556" fill="red" r="6"/>
<circle cx="273" cy="575" fill="green" r="6"/>
<circle cx="466" cy="302" fill="red" r="6"/>
<circle cx="242" cy="343" fill="green" r="6"/>
<circle cx="475" cy="290" fill="red" r="6"/>
<circle cx="327" cy="471" fill="green" r="6"/>
<circle cx="400" cy="400" fill="gray" r="6"/>
</svg>